<svg xmlns="http://www.w3.org/2000/svg" width="20" height="20" viewBox="0 0 20 20"><path d="M9.103.024C7.17.213 5.384.924 3.818 2.13c-.763.587-1.753 1.69-2.325 2.59-.247.389-.729 1.374-.901 1.844a11.988 11.988 0 0 0-.5 1.951c-.123.763-.123 2.211 0 2.974a9.833 9.833 0 0 0 .926 2.915c.517 1.054 1.056 1.801 1.917 2.663.862.86 1.61 1.398 2.664 1.916.966.473 1.838.75 2.917.924.763.124 2.212.124 2.975 0a9.848 9.848 0 0 0 2.917-.924c1.055-.518 1.802-1.055 2.664-1.916.862-.862 1.4-1.609 1.917-2.663.344-.7.517-1.16.702-1.863.246-.937.309-1.451.309-2.539s-.063-1.601-.31-2.539a8.852 8.852 0 0 0-.7-1.863c-.518-1.054-1.056-1.801-1.918-2.662-.862-.861-1.61-1.4-2.664-1.916a9.737 9.737 0 0 0-2.897-.92C10.935.013 9.65-.03 9.103.025Zm1.832 1.569c1.909.21 3.656 1.056 5.041 2.44 1.625 1.624 2.484 3.687 2.484 5.97 0 2.28-.859 4.344-2.484 5.968-1.625 1.624-3.69 2.482-5.972 2.482-2.284 0-4.348-.858-5.973-2.482s-2.483-3.687-2.483-5.969c0-2.282.858-4.345 2.483-5.97 1.366-1.364 3.132-2.226 4.994-2.438a12.56 12.56 0 0 1 1.91-.001Zm-1.108 3.71a.812.812 0 0 0-.565.541c-.025.092-.041.744-.041 1.723V9.14H7.696c-.986 0-1.599.016-1.733.045a.828.828 0 0 0-.58.529.778.778 0 0 0 .401.908c.168.081.219.083 1.804.083h1.63l.011 1.654c.01 1.589.014 1.659.093 1.81a.94.94 0 0 0 .248.273c.146.103.2.117.434.117.234 0 .288-.014.433-.117a.939.939 0 0 0 .248-.274c.079-.15.082-.22.093-1.81l.011-1.653h1.63c1.585 0 1.636-.002 1.804-.083a.778.778 0 0 0 .4-.908.828.828 0 0 0-.58-.53c-.133-.028-.746-.044-1.732-.044h-1.524V7.567c0-.979-.017-1.631-.042-1.723a.928.928 0 0 0-.385-.476.927.927 0 0 0-.533-.065Z"/></svg>
