<svg xmlns="http://www.w3.org/2000/svg" width="18" height="18" viewBox="0 0 18 18">
<path d="M3 1H15C16.1046 1 17 1.89543 17 3V15C17 16.1046 16.1046 17 15 17H3C1.89543 17 1 16.1046 1 15V3C1 1.89543 1.89543 1 3 1ZM7.802 10.344L13.746 5.104C13.8278 5.03706 13.9303 5.00049 14.036 5.00049C14.1417 5.00049 14.2442 5.03706 14.326 5.104L14.328 5.105L14.768 5.499C14.8053 5.53055 14.8354 5.56973 14.8562 5.61389C14.8771 5.65804 14.8883 5.70616 14.889 5.755C14.8884 5.80409 14.8771 5.85247 14.8561 5.89683C14.835 5.94118 14.8046 5.98047 14.767 6.012L8.095 11.893C8.01446 11.9626 7.91143 12.0006 7.805 12C7.69789 12.0011 7.59406 11.963 7.513 11.893L4.121 8.903C4.08359 8.87133 4.05343 8.83199 4.03256 8.78765C4.01168 8.74331 4.00058 8.695 4 8.646C4.0007 8.59691 4.01196 8.54856 4.03301 8.50421C4.05406 8.45986 4.08441 8.42057 4.122 8.389L4.562 8.001C4.6428 7.9312 4.74623 7.89317 4.853 7.894C4.95977 7.89317 5.0632 7.9312 5.144 8.001L7.802 10.344Z" fill-rule="evenodd"/>
</svg>
