<svg width="18" height="18" viewBox="0 0 18 18" xmlns="http://www.w3.org/2000/svg"><path d="M5.598 6.025c-1.86 1.663-3.383 3.036-3.383 3.05 0 .014.13.176.287.36l.287.334.094-.08c.052-.043 1.443-1.282 3.092-2.752a470.778 470.778 0 0 1 3.018-2.68c.017-.006 2.304 2.023 6.17 5.473.042.037.077.007.334-.296.158-.186.287-.349.287-.362C15.784 9.044 9.032 3 9.001 3 8.99 3 7.459 4.361 5.598 6.025Zm.838 1.074-2.55 2.323V15h3.72v-3.72H10.394V15H14.114V9.422l-2.557-2.325a442.145 442.145 0 0 0-2.564-2.322c-.004 0-1.155 1.047-2.557 2.324Z"/></svg>
