<svg xmlns="http://www.w3.org/2000/svg" width="18" height="18" viewBox="0 0 18 18"><path d="M11.551 2.6a.545.545 0 0 0-.403.473.566.566 0 0 0 .063.304c.015.025.373.392.796.816l.77.77-2.758 2.753c-2.926 2.92-2.786 2.775-2.786 2.888 0 .107.005.113.546.655.338.338.537.527.57.544a.282.282 0 0 0 .232 0c.036-.018.916-.888 2.795-2.763l2.743-2.738.775.772c.898.896.833.845 1.072.845.127 0 .15-.004.216-.035a.682.682 0 0 0 .247-.221c.077-.132.073.015.07-2.438l-.004-2.24-.043-.087a.55.55 0 0 0-.364-.299c-.122-.028-4.417-.028-4.537.001ZM3.698 3.662a2.356 2.356 0 0 0-1.597.807 2.318 2.318 0 0 0-.587 1.292c-.019.152-.019 7.397 0 7.549a2.4 2.4 0 0 0 .987 1.655 2.34 2.34 0 0 0 1.026.427c.113.02.42.022 3.725.027 3.755.005 3.852.003 4.118-.05.44-.088.84-.303 1.18-.634.433-.423.665-.895.723-1.475.009-.085.014-.657.014-1.559 0-1.35-.002-1.428-.024-1.477a.276.276 0 0 0-.166-.144 5.992 5.992 0 0 0-.691 0 .29.29 0 0 0-.162.13c-.02.037-.023.16-.029 1.528l-.006 1.488-.034.123a1.29 1.29 0 0 1-.353.6c-.239.24-.493.36-.826.392-.097.009-1.297.012-3.706.009-3.244-.004-3.57-.007-3.653-.026a1.307 1.307 0 0 1-.654-.355 1.342 1.342 0 0 1-.374-.62l-.03-.11V5.832l.03-.11c.038-.141.127-.328.207-.436.089-.12.261-.283.375-.356.174-.112.351-.174.575-.199.076-.009 1.163-.013 3.115-.013 2.95 0 3 0 3.048-.026a.257.257 0 0 0 .13-.152 4.641 4.641 0 0 0 0-.702.304.304 0 0 0-.06-.1c-.087-.097.17-.09-3.172-.088a262.72 262.72 0 0 0-3.129.012Z"/></svg>
