<svg width="18" height="18" viewBox="0 0 18 18" xmlns="http://www.w3.org/2000/svg"><path d="M5 16c-.367 0-.68-.13-.941-.391a1.285 1.285 0 0 1-.393-.942V8c0-.367.131-.68.393-.942.26-.26.574-.391.94-.391h.668V5.333c0-.922.325-1.708.975-2.358A3.212 3.212 0 0 1 9 2c.922 0 1.708.325 2.358.975.65.65.975 1.436.975 2.358v1.334H13c.367 0 .68.13.942.391.26.261.391.575.391.942v6.667c0 .366-.13.68-.391.942-.261.26-.575.391-.942.391H5Zm2-9.333h4V5.333c0-.555-.195-1.027-.584-1.416A1.929 1.929 0 0 0 9 3.333c-.556 0-1.028.195-1.417.584A1.929 1.929 0 0 0 7 5.333v1.334Zm-2 8h8V8H5v6.667Zm4-2c.367 0 .68-.13.942-.392.26-.261.391-.575.391-.942 0-.366-.13-.68-.391-.942A1.286 1.286 0 0 0 9 10c-.367 0-.68.13-.941.391a1.285 1.285 0 0 0-.392.942c0 .367.13.681.392.942.26.261.574.392.94.392Z"/></svg>
