<svg width="48" height="48" viewBox="0 0 48 48" xmlns="http://www.w3.org/2000/svg"><path xmlns="http://www.w3.org/2000/svg" d="M5.26 9.05a.509.509 0 0 0-.2.16c-.062.097-.065.878-.056 15.318.01 15.161.01 15.215.086 15.297.041.045.13.103.196.129.107.041 2.135.046 19.208.046 13.157 0 19.123-.01 19.202-.032.331-.091.413-.495.14-.698l-.096-.072-18.85-.016-18.848-.015-.019-14.977c-.019-14.923-.02-14.977-.095-15.045a.659.659 0 0 0-.668-.095Zm36.314 3.237c-.277.11-.267.022-.267 2.327v2.062l-.543-.003c-.593-.003-.758.025-.909.152l-.091.077-.01 3.866c-.007 3.03.002 3.882.039 3.941.026.042.133.11.238.151.178.07.224.075.733.07l.543-.005v2.058c0 1.99.002 2.063.075 2.176.094.145.337.232.559.2.177-.027.391-.19.404-.31.005-.047.01-.365.01-.706 0-.342.004-1.25.01-2.02l.009-1.4.505.005c.291.002.57-.011.662-.032.191-.044.34-.156.372-.282.013-.052.023-1.782.023-3.846 0-4.23.023-3.915-.294-4.03-.162-.06-.241-.067-.724-.065l-.542.003-.01-2.078c-.01-1.944-.016-2.084-.08-2.162-.156-.189-.454-.251-.712-.149Zm-18.892 1.461c-.286.103-.274.006-.274 2.33v2.06l-.524.001c-.596 0-.777.03-.93.152l-.109.085v7.762l.125.1c.163.129.414.171.98.165l.439-.005.019 2.086c.017 1.926.024 2.093.086 2.168.168.204.58.233.803.056l.12-.095.02-2.104.018-2.105.553-.007c.503-.007.57-.014.743-.083.155-.062.2-.098.239-.193.038-.093.046-.916.038-3.907-.01-3.559-.014-3.795-.077-3.871-.132-.16-.259-.187-.915-.199l-.6-.01V16.06c0-2.329.015-2.209-.278-2.314-.2-.073-.272-.072-.476.001Zm12.624.695a.651.651 0 0 0-.172.107l-.095.081-.01 2.099-.01 2.098-.581.012c-.53.012-.595.02-.752.088-.131.057-.182.102-.22.192-.038.092-.046.914-.038 3.906.01 3.559.015 3.795.078 3.872.131.159.258.186.914.198l.6.01v2.074c0 2.24-.005 2.182.202 2.29.243.127.606.072.75-.114.075-.096.077-.145.077-2.177v-2.078h.524c.595 0 .777-.03.93-.152l.108-.085v-7.762l-.124-.1c-.162-.127-.392-.167-.983-.167h-.455V16.77c0-1.996-.003-2.07-.075-2.164-.126-.164-.434-.239-.668-.162ZM16.34 16.642c-.226.097-.22.03-.22 2.295v2.073l-.58.01c-.488.009-.606.02-.734.071-.308.122-.286-.201-.286 4.057 0 3.543.005 3.792.067 3.89.12.19.255.225.924.243l.59.016.02 2.089c.014 1.619.03 2.104.067 2.157.112.155.515.22.717.115a.622.622 0 0 0 .17-.147c.072-.093.074-.168.074-2.16v-2.064l.581-.01c.53-.01.596-.017.74-.083a.53.53 0 0 0 .2-.145c.03-.052.042-1.18.042-3.916V21.29l-.116-.105c-.15-.135-.348-.17-.972-.17h-.475v-2.06c0-2.274.01-2.18-.24-2.301a.823.823 0 0 0-.569-.012Zm12.58.022a.427.427 0 0 0-.176.174c-.033.077-.046.645-.047 2.138l-.002 2.033-.581.012c-.613.012-.725.035-.886.176-.076.066-.077.11-.077 3.951 0 3.84.001 3.886.077 3.952.16.14.273.163.885.176l.58.012.01 2.08c.01 1.925.016 2.085.078 2.16.193.235.669.242.882.013.079-.085.08-.11.09-2.17l.01-2.083.58-.012c.613-.013.725-.035.886-.176.075-.067.076-.111.076-3.952 0-3.84-.001-3.885-.076-3.951-.161-.141-.273-.164-.886-.176l-.581-.012-.003-2.033c-.001-1.493-.014-2.061-.047-2.138-.063-.146-.257-.243-.484-.243a.626.626 0 0 0-.309.069Zm13.958 2.527c.006.928.006 2.414 0 3.3l-.01 1.614-1.038-.008-1.037-.008-.01-3.293-.01-3.293H42.868l.01 1.688ZM23.97 22.257v3.3h-2.096v-3.28c0-1.804.012-3.29.026-3.3.014-.012.485-.02 1.047-.02h1.023v3.3ZM10.08 19.679a1.02 1.02 0 0 0-.19.124c-.075.066-.077.117-.087 2.168l-.01 2.1-.543-.005c-.477-.004-.563.003-.72.06-.324.115-.298-.235-.298 4.065 0 4.138-.01 3.925.202 4.036.156.08.545.12.969.099l.39-.02.01 2.098c.012 2.348-.006 2.202.285 2.312.296.111.65-.012.735-.257.023-.066.038-.89.038-2.129v-2.02h.596c.53 0 .609-.007.72-.062.263-.13.246.144.246-4.057 0-4.277.026-3.937-.298-4.063-.162-.062-.227-.068-.72-.064l-.541.005-.011-2.085c-.01-2.054-.012-2.086-.09-2.17a.618.618 0 0 0-.683-.135Zm26.492 3.297-.01 3.293-1.038.008-1.038.008v-6.602h2.096l-.01 3.293Zm-18.89 2.172v3.285h-2.096v-6.57h2.096v3.285Zm12.612 0v3.285h-2.134v-6.57h2.134v3.285Zm-18.937 3.043v3.3H9.262v-3.28c0-1.804.011-3.289.025-3.3.014-.011.486-.02 1.048-.02h1.023v3.3Z"/></svg>
