<svg xmlns="http://www.w3.org/2000/svg" width="48" height="48" viewBox="0 0 48 48"><path d="M23.266 1.856c0 .834-.026.857-.963.857-4.01 0-9.604 2.53-13.18 5.96-3.589 3.444-6.41 9.443-6.41 13.63 0 .937-.023.963-.857.963-.788 0-.856.058-.856.734 0 .676.068.734.856.734.834 0 .857.026.857.963 0 4.334 2.902 10.35 6.694 13.876 3.564 3.315 8.979 5.714 12.896 5.714.937 0 .963.023.963.857 0 .788.058.856.734.856.676 0 .734-.068.734-.856 0-.834.026-.857.963-.857 2.49 0 6.374-1.25 9.436-3.037 2.243-1.31 5.807-4.874 7.117-7.117 1.787-3.062 3.037-6.945 3.037-9.436 0-.937.023-.963.857-.963.788 0 .856-.058.856-.734 0-.676-.068-.734-.856-.734-.834 0-.857-.026-.857-.963 0-3.917-2.399-9.332-5.714-12.896-3.527-3.792-9.542-6.694-13.876-6.694-.937 0-.963-.023-.963-.857 0-.788-.058-.856-.734-.856-.676 0-.734.068-.734.856Zm0 3.411v1.086l-1.162.16c-4.327.599-8.015 2.425-10.76 5.327-2.735 2.892-4.259 6.13-4.83 10.264l-.161 1.162h-2.24l.169-1.652c.224-2.194 1.403-5.66 2.631-7.736 1.287-2.175 3.986-5.004 6.139-6.436 2.625-1.745 6.764-3.188 9.296-3.242l.918-.02v1.087Zm6.973-.082c1.212.403 2.954 1.178 3.873 1.722 1.865 1.103 4.632 3.601 5.894 5.32 1.866 2.543 3.413 6.476 3.718 9.454l.163 1.585h-2.24l-.16-1.162c-.572-4.135-2.096-7.372-4.83-10.264-2.746-2.902-6.434-4.728-10.76-5.326l-1.163-.161v-2.24l1.652.169c.908.093 2.642.499 3.853.903Zm-6.973 4.012c0 1.06.027 1.1.734 1.1s.734-.04.734-1.1c0-1.08.015-1.101.795-1.098 1.478.007 3.91.735 5.906 1.768a15.603 15.603 0 0 1 6.834 7.059c1.078 2.247 1.635 4.161 1.635 5.618 0 .693-.045.722-1.1.722-1.061 0-1.102.027-1.102.734s.041.734 1.101.734c1.082 0 1.101.014 1.101.805 0 1.348-.685 3.612-1.753 5.793-1.413 2.886-3.933 5.406-6.819 6.82-2.18 1.067-4.445 1.752-5.793 1.752-.791 0-.805-.02-.805-1.1 0-1.061-.027-1.102-.734-1.102s-.734.041-.734 1.101c0 1.056-.03 1.101-.722 1.101-1.457 0-3.37-.557-5.618-1.635a15.603 15.603 0 0 1-7.059-6.834c-1.033-1.996-1.761-4.428-1.768-5.906-.003-.78.018-.795 1.098-.795 1.06 0 1.1-.027 1.1-.734s-.04-.734-1.1-.734c-1.08 0-1.101-.015-1.098-.795.007-1.478.735-3.91 1.768-5.906 2.381-4.597 7.92-8.348 12.481-8.449l.918-.02v1.1Zm7.585 5.626c0 .333-1.013 6.366-1.127 6.714-.072.217-.534-.274-1.222-1.3-.732-1.09-1.243-1.624-1.508-1.573-.22.043-1.527 1.836-2.902 3.985-1.376 2.15-2.623 3.948-2.772 3.998-.15.05-.98-.193-1.846-.54-.866-.346-1.716-.568-1.888-.493-.29.127-4.63 5.1-4.79 5.487-.038.094.201.349.532.565.599.393.61.384 2.701-2.031l2.1-2.426 1.763.727c.969.4 1.887.679 2.04.62.153-.059 1.138-1.466 2.19-3.127 1.051-1.66 2.154-3.38 2.45-3.82l.54-.801L28.4 22.77c1.203 1.832 1.92 2.379 2.305 1.757.174-.281 1.686-9.346 1.577-9.455-.194-.194-1.43-.411-1.43-.25ZM6.514 25.895c.598 4.327 2.424 8.015 5.326 10.76 2.892 2.735 6.13 4.259 10.264 4.83l1.162.161v2.24l-1.585-.163c-2.978-.305-6.911-1.852-9.454-3.718-1.744-1.28-4.228-4.044-5.33-5.931-1.24-2.123-2.393-5.514-2.615-7.69l-.169-1.651h2.24l.16 1.162Zm37.301-.367c-.012 2.193-1.291 6.123-2.87 8.817-.97 1.656-3.523 4.45-5.172 5.66-2.543 1.866-6.476 3.413-9.454 3.718l-1.585.163v-2.24l1.162-.16c5.385-.745 9.864-3.468 12.644-7.686 1.668-2.53 2.519-4.813 2.946-7.905l.161-1.162h1.086c1.063 0 1.086.017 1.082.795ZM13.4 33.214c-.091.091-.166.477-.166.859v.693H34.797l-.077-.795-.076-.795-10.54-.064c-5.796-.035-10.613.01-10.704.102Z"/></svg>
