<svg xmlns="http://www.w3.org/2000/svg" width="18" height="18" viewBox="0 0 18 18"><path class="st0" d="M9 16.5c-4.1 0-7.5-3.4-7.5-7.5S4.9 1.5 9 1.5s7.5 3.4 7.5 7.5-3.4 7.5-7.5 7.5zM9 2.8C5.6 2.8 2.8 5.6 2.8 9s2.8 6.2 6.2 6.2 6.2-2.8 6.2-6.2S12.4 2.8 9 2.8z"/><path d="M7.8 11.3c0-.6.1-1 .2-1.3 0-.3.2-.6.4-.8.2-.2.4-.3.7-.5.2-.1.3-.2.5-.4.1-.1.2-.3.3-.5 0-.1.1-.3.1-.5 0-.3-.1-.5-.2-.7s-.3-.3-.5-.4c-.2-.1-.4-.1-.7-.1-.2 0-.4 0-.6.1-.2.1-.3.2-.5.4-.1.2-.2.5-.2.8H6c0-.5.1-.9.4-1.3.2-.4.6-.6.9-.8.4-.2.9-.3 1.3-.3.5 0 1 .1 1.4.3.4.2.7.5.9.8.2.3.3.8.3 1.2 0 .3 0 .6-.1.9-.1.3-.2.5-.4.7-.2.2-.4.4-.7.5-.2.1-.4.3-.6.5-.1.2-.3.4-.3.6-.1.2-.1.4-.1.8v.1H7.8zm.6 2.6c-.2 0-.4-.1-.6-.2-.2-.2-.3-.4-.3-.6 0-.2.1-.4.3-.6.2-.2.4-.3.6-.3.2 0 .4.1.6.3.2.2.3.4.3.6 0 .2 0 .3-.1.4l-.3.3c-.1.1-.3.1-.5.1z"/></svg>
