<svg width="18" height="18" viewBox="0 0 18 18" xmlns="http://www.w3.org/2000/svg"><path d="M8.371 2.04a1.58 1.58 0 0 0-.796.447c-.338.339-.488.72-.489 1.242 0 .218-.006.246-.067.307-.037.037-.092.068-.121.068-.03 0-.174-.106-.32-.234-.403-.352-.728-.487-1.174-.487-.427 0-.77.135-1.13.447-.478.414-.765.819-.854 1.203-.058.249-.042.61.039.862.085.268.182.425.444.719.111.125.202.251.202.281 0 .03-.03.086-.067.123-.061.06-.09.067-.308.067-.522.001-.903.151-1.241.49C2.114 7.95 2 8.28 2 8.999s.114 1.05.489 1.425c.338.338.719.488 1.241.49.219 0 .247.006.308.067.037.037.067.091.067.12 0 .03-.105.174-.234.32-.352.403-.487.728-.487 1.175 0 .433.137.773.459 1.142.547.626.995.878 1.56.878.447 0 .772-.135 1.175-.487.146-.129.29-.234.32-.234.03 0 .084.03.12.067.062.061.068.09.068.308.001.522.151.903.49 1.241.374.375.706.489 1.424.489s1.05-.114 1.425-.489c.338-.338.488-.719.489-1.241 0-.219.007-.247.068-.308.036-.037.09-.067.12-.067s.174.105.32.234c.403.352.728.487 1.174.487.433 0 .773-.137 1.142-.459.626-.548.878-.995.878-1.561 0-.447-.135-.772-.487-1.174-.129-.147-.234-.29-.234-.32 0-.03.03-.084.067-.121.061-.061.09-.067.308-.068.522 0 .903-.15 1.241-.489.375-.375.489-.707.489-1.425 0-.718-.114-1.05-.489-1.424-.338-.339-.719-.489-1.241-.49-.219 0-.247-.006-.308-.067-.037-.037-.067-.092-.067-.123 0-.03.091-.156.202-.281.262-.294.359-.451.444-.719.08-.253.097-.613.04-.862-.09-.383-.367-.775-.843-1.192-.369-.322-.709-.458-1.142-.458-.446 0-.771.135-1.174.487-.146.128-.29.234-.32.234-.03 0-.084-.03-.12-.068-.061-.06-.068-.089-.068-.307-.001-.523-.151-.903-.49-1.242a1.567 1.567 0 0 0-.809-.448c-.249-.053-.998-.052-1.244.001Zm1.192 1.14c.204.143.238.225.258.632.021.41.074.597.237.833.127.186.247.285.49.405.521.26 1.05.163 1.513-.277.25-.238.353-.294.535-.294.19 0 .29.058.57.332.28.275.354.398.354.592 0 .182-.057.285-.294.535-.44.462-.537.992-.277 1.514.12.242.22.362.404.49.236.162.424.215.834.236.406.02.49.054.632.258.074.106.074.11.074.563 0 .44-.002.459-.068.557a.808.808 0 0 1-.173.174c-.096.067-.134.074-.465.09-.41.022-.598.075-.834.237-.185.127-.284.248-.404.49-.26.522-.163 1.051.277 1.514.237.25.294.353.294.534 0 .195-.073.317-.354.593-.28.274-.38.332-.57.332-.182 0-.285-.057-.535-.294-.462-.44-.992-.538-1.514-.278-.242.12-.362.22-.49.405-.162.236-.215.423-.236.834-.02.406-.054.489-.258.632-.106.074-.11.074-.563.074-.452 0-.457 0-.563-.075-.204-.142-.238-.225-.258-.631-.021-.41-.074-.598-.237-.834-.365-.53-1.138-.7-1.698-.371-.067.039-.21.154-.317.256-.238.225-.343.282-.523.282-.19 0-.29-.058-.57-.332-.28-.276-.354-.398-.354-.593 0-.181.057-.285.294-.534.44-.463.537-.992.277-1.514-.12-.242-.22-.363-.404-.49-.236-.162-.424-.215-.834-.236-.406-.02-.49-.055-.632-.259-.074-.106-.074-.11-.074-.562 0-.441.002-.46.068-.557a.808.808 0 0 1 .173-.174c.096-.067.134-.075.465-.091.411-.021.597-.074.835-.238.385-.264.608-.802.525-1.265-.048-.273-.169-.495-.4-.737-.236-.25-.293-.353-.293-.535 0-.194.073-.317.354-.592.28-.274.38-.332.57-.332.182 0 .285.056.535.294.467.444.989.537 1.527.271.468-.23.712-.651.713-1.228 0-.135.013-.29.029-.346.033-.12.22-.314.337-.35.047-.014.271-.023.498-.02.401.005.416.007.52.08ZM8.502 5.87a3.189 3.189 0 0 0-1.8.957 3.145 3.145 0 0 0 .126 4.47 3.154 3.154 0 0 0 2.928.779c.306-.078.427-.157.524-.343.117-.223.049-.49-.168-.666-.096-.077-.122-.085-.3-.084-.109 0-.314.023-.456.05a2.042 2.042 0 0 1-2.213-1.117c-.163-.328-.205-.516-.205-.917 0-.4.042-.589.205-.916a2.03 2.03 0 0 1 .94-.941c.328-.163.517-.205.917-.205s.589.042.916.205a2.04 2.04 0 0 1 1.119 2.215c-.029.157-.05.342-.05.412A.535.535 0 0 0 12 9.984c.136-.272.204-.901.147-1.357A3.18 3.18 0 0 0 8.502 5.87Z"/></svg>
