<svg xmlns="http://www.w3.org/2000/svg" width="18" height="18" viewBox="0 0 18 18"><path d="M14.414 3.062c0 .054.159.324.353.598.194.275.334.512.312.526-.023.015-1.261.68-2.751 1.48l-2.71 1.451-1.154-1L7.31 5.114 3.7 7.005C1.713 8.046.052 8.927.01 8.963c-.044.037.07.276.253.533l.334.466 3.257-1.719 3.256-1.72 1.132 1.031 1.133 1.03 3.211-1.73c1.767-.95 3.224-1.716 3.239-1.699.014.017.199.285.41.597.211.312.417.567.457.567.063 0 1.353-2.883 1.307-2.922a48.74 48.74 0 0 0-1.546-.176 50.082 50.082 0 0 1-1.784-.21c-.14-.025-.255-.002-.255.052Zm.484 3.19-.593.312-.002 4.213-.002 4.213h1.246v-4.533c0-2.494-.013-4.53-.029-4.525a24.26 24.26 0 0 0-.62.32Zm-2.324 1.261-.538.306V15l.651-.03.652-.03.02-3.867c.015-2.918-.012-3.868-.113-3.867-.074 0-.376.139-.672.307Zm-6.625.286-.594.296v6.895h1.359v-3.745c0-2.06-.039-3.744-.085-3.744-.047 0-.353.135-.68.298Zm1.67 3.622v3.57h1.246V8.922l-.623-.536-.622-.535v3.569Zm2.802-2.767-.653.348.03 2.97.03 2.969.651.03.651.029v-3.356c0-1.845-.013-3.352-.028-3.347a27.1 27.1 0 0 0-.681.357Zm-6.621.26-.593.31-.01 2.44a358.536 358.536 0 0 1-.02 2.858l-.01.419.641.03.64.029v-3.208c0-1.764-.012-3.204-.027-3.199a24.07 24.07 0 0 0-.621.32Zm-2.265 1.182-.593.312-.002 2.29-.002 2.292h1.246V12.38c0-1.437-.013-2.608-.028-2.603-.016.004-.295.149-.621.32Z"/></svg>
