<svg xmlns="http://www.w3.org/2000/svg" width="12" height="12" viewBox="0 0 12 12"><path d="M5.762 2.048a.626.626 0 0 0-.167.122c-.037.04-.352.58-.7 1.197a1225.688 1225.688 0 0 1-1.622 2.865l-.95 1.677c-.645 1.136-.742 1.317-.76 1.423-.04.248.077.49.292.6L1.99 10h4.023l4.022-.001.125-.07a.581.581 0 0 0 .26-.666c-.02-.058-.193-.383-.385-.723-.537-.95-.71-1.258-1.35-2.386l-1.4-2.477c-.446-.788-.84-1.466-.878-1.507A.544.544 0 0 0 6 2c-.081 0-.18.02-.238.048Zm.548 2.077c.045.02.112.072.15.117.123.15.125.206.042.996-.1.95-.249 2.298-.267 2.42l-.015.097h-.44l-.016-.11a166.06 166.06 0 0 1-.252-2.292c-.096-.907-.095-.96.024-1.104.101-.124.2-.158.459-.159.141 0 .265.013.315.035ZM6.2 8.128c.1.053.197.18.228.299a.432.432 0 0 1-.123.414c-.186.191-.424.191-.61 0-.205-.21-.17-.52.079-.693a.494.494 0 0 1 .426-.02Z"/></svg>
