<svg width="64" height="64" viewBox="0 0 64 64" fill="none" xmlns="http://www.w3.org/2000/svg"><rect width="64" height="64" rx="12" fill="#fff" fill-opacity=".25"/><rect x=".25" y=".25" width="63.5" height="63.5" rx="11.75" stroke="#fff" stroke-opacity=".25" stroke-width=".5"/><path d="M21.166 13.666a2.5 2.5 0 0 0-2.5 2.5v31.667a2.5 2.5 0 0 0 2.5 2.5h21.667a2.5 2.5 0 0 0 2.5-2.5V23.666l-10-10H21.167Z" fill="#20A464"/><path d="M21.166 50.333a2.5 2.5 0 0 1-2.5-2.5v-.417a2.5 2.5 0 0 0 2.5 2.5h21.667a2.5 2.5 0 0 0 2.5-2.5v.417a2.5 2.5 0 0 1-2.5 2.5H21.167Z" fill="#149456"/><path d="M21.166 13.666a2.5 2.5 0 0 0-2.5 2.5v.417a2.5 2.5 0 0 1 2.5-2.5H35.75l-.417-.417H21.167Z" fill="#38AE74"/><path d="M45.333 32.209v-8.542l-1.458-1.458h-7.033a.625.625 0 0 0-.442 1.067l8.933 8.933Z" fill="url(#a)"/><path d="m35.334 13.666 10 10h-7.5a2.5 2.5 0 0 1-2.5-2.5v-7.5Z" fill="#8ED1B1"/><path fill-rule="evenodd" clip-rule="evenodd" d="M38.667 31.584v12.083H25.333V31.584h13.334Zm-7.5 1.667H27v2.083h4.167v-2.083Zm1.666 2.083v-2.083H37v2.083h-4.166Zm-1.666 1.25H27v2.083h4.167v-2.083Zm1.666 2.083v-2.083H37v2.083h-4.166Zm-1.666 1.25H27v2.084h4.167v-2.084Zm1.666 2.084v-2.084H37v2.084h-4.166Z" fill="#fff"/><defs><linearGradient id="a" x1="40.775" y1="32.209" x2="40.775" y2="22.001" gradientUnits="userSpaceOnUse"><stop stop-color="#20A464"/><stop offset="1" stop-color="#207E55"/></linearGradient></defs></svg>
