<svg width="117" height="48" viewBox="0 0 117 48" fill="none" xmlns="http://www.w3.org/2000/svg"><path fill-rule="evenodd" clip-rule="evenodd" d="M24 48c13.255 0 24-10.745 24-24S37.255 0 24 0 0 10.745 0 24s10.745 24 24 24Zm-7.622-18.539c0-.4.325-.723.724-.723.4 0 .724-.325.724-.724v-9.308c0-.4-.324-.724-.724-.724a.724.724 0 0 1-.724-.724v-1.21a.693.693 0 1 0-1.385 0v1.19c0 .399-.324.723-.724.723-.4 0-.724.324-.724.724v9.329c0 .4.324.724.724.724.4 0 .724.324.724.723v5.524a.693.693 0 0 0 1.385 0V29.46ZM24.011 39a.765.765 0 0 0 .765-.765V34.5c0-.41.333-.744.744-.744a.745.745 0 0 0 .745-.745V15.91a.755.755 0 0 0-.755-.755.755.755 0 0 1-.755-.755V9.755a.755.755 0 1 0-1.51 0V14.4a.755.755 0 0 1-.755.755.755.755 0 0 0-.755.755v17.092c0 .417.338.755.755.755s.755.338.755.755v3.723c0 .422.343.765.766.765Zm8.997-13.85c0-.4.324-.723.724-.723.4 0 .724-.324.724-.724v-9.29c0-.4-.325-.723-.724-.723a.724.724 0 0 1-.724-.724v-1.282a.62.62 0 1 0-1.241 0v1.282c0 .4-.324.724-.724.724-.4 0-.724.324-.724.724v9.289c0 .4.324.724.724.724.4 0 .724.324.724.724v3.888a.62.62 0 1 0 1.24 0v-3.888Z" fill="url(#a)"/><path d="M91.816 38.973c-.812 0-1.534-.139-2.167-.417-.633-.277-1.133-.655-1.5-1.133a3.046 3.046 0 0 1-.617-1.633h2.817c.033.322.183.583.45.783.267.2.594.3.983.3.356 0 .628-.067.817-.2.2-.145.3-.328.3-.55 0-.267-.139-.461-.417-.583-.278-.134-.728-.278-1.35-.434a13.733 13.733 0 0 1-1.666-.483 2.993 2.993 0 0 1-1.15-.817c-.323-.377-.484-.883-.484-1.516 0-.534.145-1.017.434-1.45.3-.445.733-.795 1.3-1.05.577-.256 1.26-.384 2.05-.384 1.166 0 2.083.29 2.75.867.677.578 1.066 1.344 1.166 2.3H92.9a1.123 1.123 0 0 0-.433-.767c-.234-.189-.545-.283-.934-.283-.333 0-.589.067-.766.2a.591.591 0 0 0-.267.517c0 .266.139.466.417.6.288.133.733.266 1.333.4.689.177 1.25.355 1.683.533a2.74 2.74 0 0 1 1.134.833c.333.378.505.89.516 1.534 0 .544-.155 1.033-.466 1.466-.3.422-.74.756-1.317 1-.567.245-1.228.367-1.983.367ZM85.53 27.14v11.7h-2.85v-11.7h2.85ZM80.681 30.907c0 .678-.155 1.3-.466 1.867-.312.556-.79 1.005-1.434 1.35-.644.344-1.444.517-2.4.517h-1.766v4.2h-2.85v-11.7h4.616c.934 0 1.722.16 2.367.483.644.322 1.128.767 1.45 1.333.322.567.483 1.217.483 1.95Zm-4.516 1.467c.544 0 .95-.128 1.216-.383.267-.256.4-.617.4-1.084 0-.466-.133-.828-.4-1.083-.266-.256-.672-.383-1.216-.383h-1.55v2.933h1.55ZM66.049 36.774h-4.367l-.7 2.067H58l4.233-11.7h3.3l4.234 11.7h-3.017l-.7-2.067Zm-.733-2.2-1.45-4.283-1.434 4.283h2.884ZM110.2 9.3c1.233 0 2.311.245 3.233.734a5.17 5.17 0 0 1 2.133 2.067c.512.878.767 1.894.767 3.05 0 1.144-.255 2.16-.767 3.05a5.141 5.141 0 0 1-2.15 2.066c-.922.49-1.994.734-3.216.734h-4.384V9.3h4.384Zm-.184 9.234c1.078 0 1.917-.294 2.517-.883.6-.59.9-1.422.9-2.5s-.3-1.917-.9-2.517c-.6-.6-1.439-.9-2.517-.9h-1.35v6.8h1.35ZM103.816 9.3V21h-2.85v-4.816h-4.433v4.817h-2.85V9.3h2.85v4.583h4.433V9.301h2.85ZM85.55 9.3c1.233 0 2.31.245 3.233.734a5.17 5.17 0 0 1 2.133 2.067c.511.878.767 1.894.767 3.05 0 1.144-.256 2.16-.767 3.05a5.145 5.145 0 0 1-2.15 2.066c-.922.49-1.994.734-3.217.734h-4.383V9.3h4.383Zm-.184 9.234c1.078 0 1.917-.294 2.517-.883.6-.59.9-1.422.9-2.5s-.3-1.917-.9-2.517c-.6-.6-1.44-.9-2.517-.9h-1.35v6.8h1.35ZM73.182 21.142c-1.1 0-2.111-.256-3.034-.767a5.83 5.83 0 0 1-2.183-2.134c-.533-.922-.8-1.955-.8-3.1 0-1.144.267-2.172.8-3.083a5.83 5.83 0 0 1 2.183-2.133 6.153 6.153 0 0 1 3.034-.767c1.1 0 2.105.256 3.016.767a5.554 5.554 0 0 1 2.167 2.133c.533.911.8 1.94.8 3.084 0 1.144-.267 2.177-.8 3.1a5.706 5.706 0 0 1-2.167 2.133c-.91.511-1.916.767-3.016.767Zm0-2.6c.933 0 1.677-.312 2.233-.934.567-.622.85-1.444.85-2.466 0-1.034-.283-1.856-.85-2.467-.556-.622-1.3-.934-2.233-.934-.945 0-1.7.306-2.267.917-.556.611-.833 1.44-.833 2.484 0 1.033.278 1.86.833 2.483.567.611 1.322.916 2.267.916ZM60.849 11.584v2.367h3.817v2.2h-3.817v2.566h4.317v2.284h-7.167V9.3h7.167v2.283h-4.317Z" fill="#0D273A"/><defs><linearGradient id="a" x1="0" y1="24" x2="48" y2="24" gradientUnits="userSpaceOnUse"><stop stop-color="#F76139"/><stop offset="1" stop-color="#EB9065"/></linearGradient></defs></svg>
