<svg xmlns="http://www.w3.org/2000/svg" xmlns:xlink="http://www.w3.org/1999/xlink"><symbol fill="currentColor" viewBox="0 0 18 18" id="check"><path fill-rule="evenodd" d="M4.05 4.05A6.976 6.976 0 0 1 9 2a6.98 6.98 0 0 1 4.95 2.05A6.976 6.976 0 0 1 16 9a6.976 6.976 0 0 1-2.05 4.95A6.976 6.976 0 0 1 9 16a6.976 6.976 0 0 1-4.95-2.05A6.976 6.976 0 0 1 2 9a6.98 6.98 0 0 1 2.05-4.95Zm9.389 2.067a.778.778 0 0 1 0 1.1l-4.667 4.666a.778.778 0 0 1-1.1 0L5.34 9.55a.778.778 0 0 1 1.1-1.1l1.783 1.783 4.117-4.116a.778.778 0 0 1 1.1 0Z"/></symbol><symbol fill="currentColor" viewBox="0 0 18 18" id="email"><path d="M3 3h12a1.5 1.5 0 0 1 1.5 1.5v9A1.5 1.5 0 0 1 15 15H3a1.5 1.5 0 0 1-1.5-1.5v-9A1.5 1.5 0 0 1 3 3Zm7.238 8.588L15 8.25V6.675l-5.512 3.862a.855.855 0 0 1-.976 0L3 6.675V8.25l4.763 3.338a2.16 2.16 0 0 0 2.475 0Z"/></symbol><symbol fill="currentColor" viewBox="0 0 18 18" id="home"><path d="M5.598 6.025c-1.86 1.663-3.383 3.036-3.383 3.05 0 .014.13.176.287.36l.287.334.094-.08c.052-.043 1.443-1.282 3.092-2.752a470.778 470.778 0 0 1 3.018-2.68c.017-.006 2.304 2.023 6.17 5.473.042.037.077.007.334-.296.158-.186.287-.349.287-.362C15.784 9.044 9.032 3 9.001 3a394.6 394.6 0 0 0-3.403 3.025Zm.838 1.074-2.55 2.323V15h3.72v-3.72h2.788V15h3.72V9.422l-2.557-2.325a442.145 442.145 0 0 0-2.564-2.322c-.004 0-1.155 1.047-2.557 2.324Z"/></symbol><symbol fill="currentColor" viewBox="0 0 18 18" id="link"><path d="M11.551 2.6a.545.545 0 0 0-.403.473.566.566 0 0 0 .063.304c.015.025.373.392.796.816l.77.77-2.758 2.753c-2.926 2.92-2.786 2.775-2.786 2.888 0 .107.005.113.546.655.338.338.537.527.57.544a.282.282 0 0 0 .232 0c.036-.018.916-.888 2.795-2.763l2.743-2.738.775.772c.898.896.833.845 1.072.845.127 0 .15-.004.216-.035a.682.682 0 0 0 .247-.221c.077-.132.073.015.07-2.438l-.004-2.24-.043-.087a.55.55 0 0 0-.364-.299c-.122-.028-4.417-.028-4.537.001ZM3.698 3.662a2.356 2.356 0 0 0-1.597.807 2.318 2.318 0 0 0-.587 1.292c-.019.152-.019 7.397 0 7.549a2.4 2.4 0 0 0 .987 1.655 2.34 2.34 0 0 0 1.026.427c.113.02.42.022 3.725.027 3.755.005 3.852.003 4.118-.05.44-.088.84-.303 1.18-.634.433-.423.665-.895.723-1.475.009-.085.014-.657.014-1.559 0-1.35-.002-1.428-.024-1.477a.276.276 0 0 0-.166-.144 5.992 5.992 0 0 0-.691 0 .29.29 0 0 0-.162.13c-.02.037-.023.16-.029 1.528l-.006 1.488-.034.123a1.29 1.29 0 0 1-.353.6c-.239.24-.493.36-.826.392-.097.009-1.297.012-3.706.009-3.244-.004-3.57-.007-3.653-.026a1.307 1.307 0 0 1-.654-.355 1.342 1.342 0 0 1-.374-.62l-.03-.11V5.832l.03-.11a1.5 1.5 0 0 1 .207-.436c.089-.12.261-.283.375-.356a1.27 1.27 0 0 1 .575-.199c.076-.009 1.163-.013 3.115-.013 2.95 0 3 0 3.048-.026a.257.257 0 0 0 .13-.152 4.641 4.641 0 0 0 0-.702.304.304 0 0 0-.06-.1c-.087-.097.17-.09-3.172-.088a262.72 262.72 0 0 0-3.129.012Z"/></symbol><symbol fill="currentColor" viewBox="0 0 18 18" id="question"><path class="est0" d="M9 16.5c-4.1 0-7.5-3.4-7.5-7.5S4.9 1.5 9 1.5s7.5 3.4 7.5 7.5-3.4 7.5-7.5 7.5zM9 2.8C5.6 2.8 2.8 5.6 2.8 9s2.8 6.2 6.2 6.2 6.2-2.8 6.2-6.2S12.4 2.8 9 2.8z"/><path d="M7.8 11.3c0-.6.1-1 .2-1.3 0-.3.2-.6.4-.8.2-.2.4-.3.7-.5.2-.1.3-.2.5-.4.1-.1.2-.3.3-.5 0-.1.1-.3.1-.5 0-.3-.1-.5-.2-.7s-.3-.3-.5-.4c-.2-.1-.4-.1-.7-.1-.2 0-.4 0-.6.1-.2.1-.3.2-.5.4-.1.2-.2.5-.2.8H6c0-.5.1-.9.4-1.3.2-.4.6-.6.9-.8.4-.2.9-.3 1.3-.3.5 0 1 .1 1.4.3.4.2.7.5.9.8.2.3.3.8.3 1.2 0 .3 0 .6-.1.9-.1.3-.2.5-.4.7-.2.2-.4.4-.7.5-.2.1-.4.3-.6.5-.1.2-.3.4-.3.6-.1.2-.1.4-.1.8v.1H7.8zm.6 2.6c-.2 0-.4-.1-.6-.2-.2-.2-.3-.4-.3-.6 0-.2.1-.4.3-.6.2-.2.4-.3.6-.3.2 0 .4.1.6.3.2.2.3.4.3.6 0 .2 0 .3-.1.4l-.3.3c-.1.1-.3.1-.5.1z"/></symbol><symbol fill="currentColor" viewBox="0 0 18 18" id="stats"><path d="M14.414 3.062c0 .054.159.324.353.598.194.275.334.512.312.526-.023.015-1.261.68-2.751 1.48l-2.71 1.451-1.154-1L7.31 5.114 3.7 7.005C1.713 8.046.052 8.927.01 8.963c-.044.037.07.276.253.533l.334.466 3.257-1.719 3.256-1.72 1.132 1.031 1.133 1.03 3.211-1.73c1.767-.95 3.224-1.716 3.239-1.699.014.017.199.285.41.597.211.312.417.567.457.567.063 0 1.353-2.883 1.307-2.922a48.74 48.74 0 0 0-1.546-.176 50.082 50.082 0 0 1-1.784-.21c-.14-.025-.255-.002-.255.052Zm.484 3.19-.593.312-.002 4.213-.002 4.213h1.246v-4.533c0-2.494-.013-4.53-.029-4.525a24.26 24.26 0 0 0-.62.32Zm-2.324 1.261-.538.306V15l.651-.03.652-.03.02-3.867c.015-2.918-.012-3.868-.113-3.867-.074 0-.376.139-.672.307Zm-6.625.286-.594.296v6.895h1.359v-3.745c0-2.06-.039-3.744-.085-3.744-.047 0-.353.135-.68.298Zm1.67 3.622v3.57h1.246V8.922l-.623-.536-.622-.535v3.569Zm2.802-2.767-.653.348.03 2.97.03 2.969.651.03.651.029v-3.356c0-1.845-.013-3.352-.028-3.347a27.1 27.1 0 0 0-.681.357Zm-6.621.26-.593.31-.01 2.44a358.536 358.536 0 0 1-.02 2.858l-.01.419.641.03.64.029v-3.208c0-1.764-.012-3.204-.027-3.199a24.07 24.07 0 0 0-.621.32Zm-2.265 1.182-.593.312-.002 2.29-.002 2.292h1.246v-2.61c0-1.437-.013-2.608-.028-2.603-.016.004-.295.149-.621.32Z"/></symbol><symbol fill="currentColor" viewBox="0 0 12 12" id="status"><circle cx="6" cy="6" r="2.5"/></symbol><symbol fill="currentColor" viewBox="0 0 12 12" id="status-warning"><path d="M5.762 2.048a.626.626 0 0 0-.167.122c-.037.04-.352.58-.7 1.197a1225.688 1225.688 0 0 1-1.622 2.865l-.95 1.677c-.645 1.136-.742 1.317-.76 1.423-.04.248.077.49.292.6L1.99 10h4.023l4.022-.001.125-.07a.581.581 0 0 0 .26-.666c-.02-.058-.193-.383-.385-.723-.537-.95-.71-1.258-1.35-2.386l-1.4-2.477c-.446-.788-.84-1.466-.878-1.507A.544.544 0 0 0 6 2c-.081 0-.18.02-.238.048Zm.548 2.077c.045.02.112.072.15.117.123.15.125.206.042.996-.1.95-.249 2.298-.267 2.42l-.015.097h-.44l-.016-.11a166.06 166.06 0 0 1-.252-2.292c-.096-.907-.095-.96.024-1.104.101-.124.2-.158.459-.159.141 0 .265.013.315.035ZM6.2 8.128c.1.053.197.18.228.299a.432.432 0 0 1-.123.414c-.186.191-.424.191-.61 0-.205-.21-.17-.52.079-.693a.494.494 0 0 1 .426-.02Z"/></symbol></svg>