<svg xmlns="http://www.w3.org/2000/svg" xmlns:xlink="http://www.w3.org/1999/xlink"><symbol fill="currentColor" viewBox="0 0 20 20" id="add"><path d="M9.103.024C7.17.213 5.384.924 3.818 2.13c-.763.587-1.753 1.69-2.325 2.59-.247.389-.729 1.374-.901 1.844a11.988 11.988 0 0 0-.5 1.951c-.123.763-.123 2.211 0 2.974a9.833 9.833 0 0 0 .926 2.915c.517 1.054 1.056 1.801 1.917 2.663.862.86 1.61 1.398 2.664 1.916.966.473 1.838.75 2.917.924.763.124 2.212.124 2.975 0a9.848 9.848 0 0 0 2.917-.924c1.055-.518 1.802-1.055 2.664-1.916.862-.862 1.4-1.609 1.917-2.663.344-.7.517-1.16.702-1.863.246-.937.309-1.451.309-2.539s-.063-1.601-.31-2.539a8.852 8.852 0 0 0-.7-1.863c-.518-1.054-1.056-1.801-1.918-2.662-.862-.861-1.61-1.4-2.664-1.916a9.737 9.737 0 0 0-2.897-.92C10.935.013 9.65-.03 9.103.025Zm1.832 1.569c1.909.21 3.656 1.056 5.041 2.44 1.625 1.624 2.484 3.687 2.484 5.97 0 2.28-.859 4.344-2.484 5.968-1.625 1.624-3.69 2.482-5.972 2.482-2.284 0-4.348-.858-5.973-2.482s-2.483-3.687-2.483-5.969c0-2.282.858-4.345 2.483-5.97 1.366-1.364 3.132-2.226 4.994-2.438a12.56 12.56 0 0 1 1.91-.001Zm-1.108 3.71a.812.812 0 0 0-.565.541c-.025.092-.041.744-.041 1.723V9.14H7.696c-.986 0-1.599.016-1.733.045a.828.828 0 0 0-.58.529.778.778 0 0 0 .401.908c.168.081.219.083 1.804.083h1.63l.011 1.654c.01 1.589.014 1.659.093 1.81a.94.94 0 0 0 .248.273c.146.103.2.117.434.117.234 0 .288-.014.433-.117a.939.939 0 0 0 .248-.274c.079-.15.082-.22.093-1.81l.011-1.653h1.63c1.585 0 1.636-.002 1.804-.083a.778.778 0 0 0 .4-.908.828.828 0 0 0-.58-.53c-.133-.028-.746-.044-1.732-.044h-1.524V7.567c0-.979-.017-1.631-.042-1.723a.928.928 0 0 0-.385-.476.927.927 0 0 0-.533-.065Z"/></symbol><symbol fill="currentColor" viewBox="0 0 18 18" id="check"><path fill-rule="evenodd" d="M4.05 4.05A6.976 6.976 0 0 1 9 2a6.98 6.98 0 0 1 4.95 2.05A6.976 6.976 0 0 1 16 9a6.976 6.976 0 0 1-2.05 4.95A6.976 6.976 0 0 1 9 16a6.976 6.976 0 0 1-4.95-2.05A6.976 6.976 0 0 1 2 9a6.98 6.98 0 0 1 2.05-4.95Zm9.389 2.067a.778.778 0 0 1 0 1.1l-4.667 4.666a.778.778 0 0 1-1.1 0L5.34 9.55a.778.778 0 0 1 1.1-1.1l1.783 1.783 4.117-4.116a.778.778 0 0 1 1.1 0Z"/></symbol><symbol fill="currentColor" viewBox="0 0 18 18" id="check-2"><path d="M7.242 13a.786.786 0 0 1-.268-.045.624.624 0 0 1-.233-.152L3.663 9.725a.663.663 0 0 1-.189-.51.722.722 0 0 1 .207-.51.679.679 0 0 1 .5-.197c.204 0 .37.065.502.197l2.56 2.559 6.066-6.067A.69.69 0 0 1 13.82 5a.69.69 0 0 1 .51.197.69.69 0 0 1 .197.51.69.69 0 0 1-.197.51l-6.586 6.586a.624.624 0 0 1-.232.152.786.786 0 0 1-.269.045Z"/></symbol><symbol fill="currentColor" viewBox="0 0 18 18" id="checkbox"><path d="M3 1h12a2 2 0 0 1 2 2v12a2 2 0 0 1-2 2H3a2 2 0 0 1-2-2V3a2 2 0 0 1 2-2Zm4.802 9.344 5.944-5.24a.458.458 0 0 1 .58 0l.002.001.44.394a.34.34 0 0 1 .121.256.341.341 0 0 1-.122.257l-6.672 5.881a.44.44 0 0 1-.29.107.44.44 0 0 1-.292-.107l-3.392-2.99A.342.342 0 0 1 4 8.646a.342.342 0 0 1 .122-.257l.44-.388a.44.44 0 0 1 .291-.107.44.44 0 0 1 .291.107l2.658 2.343Z" fill-rule="evenodd"/></symbol><symbol fill="currentColor" viewBox="0 0 18 18" id="chevron-down"><path d="M9.298 11.402a.422.422 0 0 1-.596 0L4.4 7.1a.422.422 0 0 1 0-.597l.2-.199a.422.422 0 0 1 .596 0L9 10.11l3.804-3.804a.422.422 0 0 1 .596 0l.2.2a.422.422 0 0 1 0 .596l-4.302 4.3Z"/></symbol><symbol fill="currentColor" viewBox="0 0 18 18" id="chevron-left"><path d="M6.598 9.298a.422.422 0 0 1 0-.596l4.3-4.302a.422.422 0 0 1 .598 0l.198.2a.422.422 0 0 1 0 .596L7.89 9l3.804 3.804a.422.422 0 0 1 0 .596l-.199.2a.422.422 0 0 1-.596 0L6.598 9.297Z"/></symbol><symbol fill="currentColor" viewBox="0 0 18 18" id="chevron-right"><path d="M11.402 8.702a.422.422 0 0 1 0 .596l-4.3 4.301a.422.422 0 0 1-.598 0l-.198-.199a.422.422 0 0 1 0-.596L10.11 9 6.306 5.196a.422.422 0 0 1 0-.597l.198-.199a.422.422 0 0 1 .597 0l4.301 4.302Z"/></symbol><symbol fill="currentColor" viewBox="0 0 12 12" id="cross"><path d="M6 6.727 9.273 10 10 9.273 6.727 6 10 2.727 9.273 2 6 5.273 2.727 2 2 2.727 5.273 6 2 9.273l.728.727L6 6.727Z"/></symbol><symbol fill="currentColor" viewBox="0 0 18 18" id="email"><path d="M3 3h12a1.5 1.5 0 0 1 1.5 1.5v9A1.5 1.5 0 0 1 15 15H3a1.5 1.5 0 0 1-1.5-1.5v-9A1.5 1.5 0 0 1 3 3Zm7.238 8.588L15 8.25V6.675l-5.512 3.862a.855.855 0 0 1-.976 0L3 6.675V8.25l4.763 3.338a2.16 2.16 0 0 0 2.475 0Z"/></symbol><symbol fill="currentColor" viewBox="0 0 18 18" id="home"><path d="M5.598 6.025c-1.86 1.663-3.383 3.036-3.383 3.05 0 .014.13.176.287.36l.287.334.094-.08c.052-.043 1.443-1.282 3.092-2.752a470.778 470.778 0 0 1 3.018-2.68c.017-.006 2.304 2.023 6.17 5.473.042.037.077.007.334-.296.158-.186.287-.349.287-.362C15.784 9.044 9.032 3 9.001 3a394.6 394.6 0 0 0-3.403 3.025Zm.838 1.074-2.55 2.323V15h3.72v-3.72h2.788V15h3.72V9.422l-2.557-2.325a442.145 442.145 0 0 0-2.564-2.322c-.004 0-1.155 1.047-2.557 2.324Z"/></symbol><symbol fill="currentColor" viewBox="0 0 18 18" id="link"><path d="M11.551 2.6a.545.545 0 0 0-.403.473.566.566 0 0 0 .063.304c.015.025.373.392.796.816l.77.77-2.758 2.753c-2.926 2.92-2.786 2.775-2.786 2.888 0 .107.005.113.546.655.338.338.537.527.57.544a.282.282 0 0 0 .232 0c.036-.018.916-.888 2.795-2.763l2.743-2.738.775.772c.898.896.833.845 1.072.845.127 0 .15-.004.216-.035a.682.682 0 0 0 .247-.221c.077-.132.073.015.07-2.438l-.004-2.24-.043-.087a.55.55 0 0 0-.364-.299c-.122-.028-4.417-.028-4.537.001ZM3.698 3.662a2.356 2.356 0 0 0-1.597.807 2.318 2.318 0 0 0-.587 1.292c-.019.152-.019 7.397 0 7.549a2.4 2.4 0 0 0 .987 1.655 2.34 2.34 0 0 0 1.026.427c.113.02.42.022 3.725.027 3.755.005 3.852.003 4.118-.05.44-.088.84-.303 1.18-.634.433-.423.665-.895.723-1.475.009-.085.014-.657.014-1.559 0-1.35-.002-1.428-.024-1.477a.276.276 0 0 0-.166-.144 5.992 5.992 0 0 0-.691 0 .29.29 0 0 0-.162.13c-.02.037-.023.16-.029 1.528l-.006 1.488-.034.123a1.29 1.29 0 0 1-.353.6c-.239.24-.493.36-.826.392-.097.009-1.297.012-3.706.009-3.244-.004-3.57-.007-3.653-.026a1.307 1.307 0 0 1-.654-.355 1.342 1.342 0 0 1-.374-.62l-.03-.11V5.832l.03-.11a1.5 1.5 0 0 1 .207-.436c.089-.12.261-.283.375-.356a1.27 1.27 0 0 1 .575-.199c.076-.009 1.163-.013 3.115-.013 2.95 0 3 0 3.048-.026a.257.257 0 0 0 .13-.152 4.641 4.641 0 0 0 0-.702.304.304 0 0 0-.06-.1c-.087-.097.17-.09-3.172-.088a262.72 262.72 0 0 0-3.129.012Z"/></symbol><symbol fill="currentColor" viewBox="0 0 18 18" id="lock"><path d="M5 16c-.367 0-.68-.13-.941-.391a1.285 1.285 0 0 1-.393-.942V8c0-.367.131-.68.393-.942.26-.26.574-.391.94-.391h.668V5.333c0-.922.325-1.708.975-2.358A3.212 3.212 0 0 1 9 2c.922 0 1.708.325 2.358.975.65.65.975 1.436.975 2.358v1.334H13c.367 0 .68.13.942.391.26.261.391.575.391.942v6.667c0 .366-.13.68-.391.942-.261.26-.575.391-.942.391H5Zm2-9.333h4V5.333c0-.555-.195-1.027-.584-1.416A1.929 1.929 0 0 0 9 3.333a1.93 1.93 0 0 0-1.417.584A1.929 1.929 0 0 0 7 5.333v1.334Zm-2 8h8V8H5v6.667Zm4-2c.367 0 .68-.13.942-.392.26-.261.391-.575.391-.942 0-.366-.13-.68-.391-.942A1.286 1.286 0 0 0 9 10c-.367 0-.68.13-.941.391a1.285 1.285 0 0 0-.392.942c0 .367.13.681.392.942.26.261.574.392.94.392Z"/></symbol><symbol fill="currentColor" viewBox="0 0 48 48" id="pic-screener"><path d="M23.266 1.856c0 .834-.026.857-.963.857-4.01 0-9.604 2.53-13.18 5.96-3.589 3.444-6.41 9.443-6.41 13.63 0 .937-.023.963-.857.963-.788 0-.856.058-.856.734 0 .676.068.734.856.734.834 0 .857.026.857.963 0 4.334 2.902 10.35 6.694 13.876 3.564 3.315 8.979 5.714 12.896 5.714.937 0 .963.023.963.857 0 .788.058.856.734.856.676 0 .734-.068.734-.856 0-.834.026-.857.963-.857 2.49 0 6.374-1.25 9.436-3.037 2.243-1.31 5.807-4.874 7.117-7.117 1.787-3.062 3.037-6.945 3.037-9.436 0-.937.023-.963.857-.963.788 0 .856-.058.856-.734 0-.676-.068-.734-.856-.734-.834 0-.857-.026-.857-.963 0-3.917-2.399-9.332-5.714-12.896-3.527-3.792-9.542-6.694-13.876-6.694-.937 0-.963-.023-.963-.857 0-.788-.058-.856-.734-.856-.676 0-.734.068-.734.856Zm0 3.411v1.086l-1.162.16c-4.327.599-8.015 2.425-10.76 5.327-2.735 2.892-4.259 6.13-4.83 10.264l-.161 1.162h-2.24l.169-1.652c.224-2.194 1.403-5.66 2.631-7.736 1.287-2.175 3.986-5.004 6.139-6.436 2.625-1.745 6.764-3.188 9.296-3.242l.918-.02v1.087Zm6.973-.082c1.212.403 2.954 1.178 3.873 1.722 1.865 1.103 4.632 3.601 5.894 5.32 1.866 2.543 3.413 6.476 3.718 9.454l.163 1.585h-2.24l-.16-1.162c-.572-4.135-2.096-7.372-4.83-10.264-2.746-2.902-6.434-4.728-10.76-5.326l-1.163-.161v-2.24l1.652.169c.908.093 2.642.499 3.853.903Zm-6.973 4.012c0 1.06.027 1.1.734 1.1s.734-.04.734-1.1c0-1.08.015-1.101.795-1.098 1.478.007 3.91.735 5.906 1.768a15.603 15.603 0 0 1 6.834 7.059c1.078 2.247 1.635 4.161 1.635 5.618 0 .693-.045.722-1.1.722-1.061 0-1.102.027-1.102.734s.041.734 1.101.734c1.082 0 1.101.014 1.101.805 0 1.348-.685 3.612-1.753 5.793-1.413 2.886-3.933 5.406-6.819 6.82-2.18 1.067-4.445 1.752-5.793 1.752-.791 0-.805-.02-.805-1.1 0-1.061-.027-1.102-.734-1.102s-.734.041-.734 1.101c0 1.056-.03 1.101-.722 1.101-1.457 0-3.37-.557-5.618-1.635a15.603 15.603 0 0 1-7.059-6.834c-1.033-1.996-1.761-4.428-1.768-5.906-.003-.78.018-.795 1.098-.795 1.06 0 1.1-.027 1.1-.734s-.04-.734-1.1-.734c-1.08 0-1.101-.015-1.098-.795.007-1.478.735-3.91 1.768-5.906 2.381-4.597 7.92-8.348 12.481-8.449l.918-.02v1.1Zm7.585 5.626c0 .333-1.013 6.366-1.127 6.714-.072.217-.534-.274-1.222-1.3-.732-1.09-1.243-1.624-1.508-1.573-.22.043-1.527 1.836-2.902 3.985-1.376 2.15-2.623 3.948-2.772 3.998-.15.05-.98-.193-1.846-.54-.866-.346-1.716-.568-1.888-.493-.29.127-4.63 5.1-4.79 5.487-.038.094.201.349.532.565.599.393.61.384 2.701-2.031l2.1-2.426 1.763.727c.969.4 1.887.679 2.04.62.153-.059 1.138-1.466 2.19-3.127 1.051-1.66 2.154-3.38 2.45-3.82l.54-.801L28.4 22.77c1.203 1.832 1.92 2.379 2.305 1.757.174-.281 1.686-9.346 1.577-9.455-.194-.194-1.43-.411-1.43-.25ZM6.514 25.895c.598 4.327 2.424 8.015 5.326 10.76 2.892 2.735 6.13 4.259 10.264 4.83l1.162.161v2.24l-1.585-.163c-2.978-.305-6.911-1.852-9.454-3.718-1.744-1.28-4.228-4.044-5.33-5.931-1.24-2.123-2.393-5.514-2.615-7.69l-.169-1.651h2.24l.16 1.162Zm37.301-.367c-.012 2.193-1.291 6.123-2.87 8.817-.97 1.656-3.523 4.45-5.172 5.66-2.543 1.866-6.476 3.413-9.454 3.718l-1.585.163v-2.24l1.162-.16c5.385-.745 9.864-3.468 12.644-7.686 1.668-2.53 2.519-4.813 2.946-7.905l.161-1.162h1.086c1.063 0 1.086.017 1.082.795ZM13.4 33.214c-.091.091-.166.477-.166.859v.693h21.563l-.077-.795-.076-.795-10.54-.064c-5.796-.035-10.613.01-10.704.102Z"/></symbol><symbol fill="currentColor" viewBox="0 0 18 18" id="question"><path class="nst0" d="M9 16.5c-4.1 0-7.5-3.4-7.5-7.5S4.9 1.5 9 1.5s7.5 3.4 7.5 7.5-3.4 7.5-7.5 7.5zM9 2.8C5.6 2.8 2.8 5.6 2.8 9s2.8 6.2 6.2 6.2 6.2-2.8 6.2-6.2S12.4 2.8 9 2.8z"/><path d="M7.8 11.3c0-.6.1-1 .2-1.3 0-.3.2-.6.4-.8.2-.2.4-.3.7-.5.2-.1.3-.2.5-.4.1-.1.2-.3.3-.5 0-.1.1-.3.1-.5 0-.3-.1-.5-.2-.7s-.3-.3-.5-.4c-.2-.1-.4-.1-.7-.1-.2 0-.4 0-.6.1-.2.1-.3.2-.5.4-.1.2-.2.5-.2.8H6c0-.5.1-.9.4-1.3.2-.4.6-.6.9-.8.4-.2.9-.3 1.3-.3.5 0 1 .1 1.4.3.4.2.7.5.9.8.2.3.3.8.3 1.2 0 .3 0 .6-.1.9-.1.3-.2.5-.4.7-.2.2-.4.4-.7.5-.2.1-.4.3-.6.5-.1.2-.3.4-.3.6-.1.2-.1.4-.1.8v.1H7.8zm.6 2.6c-.2 0-.4-.1-.6-.2-.2-.2-.3-.4-.3-.6 0-.2.1-.4.3-.6.2-.2.4-.3.6-.3.2 0 .4.1.6.3.2.2.3.4.3.6 0 .2 0 .3-.1.4l-.3.3c-.1.1-.3.1-.5.1z"/></symbol><symbol fill="currentColor" viewBox="0 0 18 18" id="radio"><circle cx="9" cy="9" r="5"/></symbol><symbol fill="currentColor" viewBox="0 0 18 18" id="settings"><path d="M8.371 2.04a1.58 1.58 0 0 0-.796.447c-.338.339-.488.72-.489 1.242 0 .218-.006.246-.067.307-.037.037-.092.068-.121.068-.03 0-.174-.106-.32-.234-.403-.352-.728-.487-1.174-.487-.427 0-.77.135-1.13.447-.478.414-.765.819-.854 1.203-.058.249-.042.61.039.862.085.268.182.425.444.719.111.125.202.251.202.281 0 .03-.03.086-.067.123-.061.06-.09.067-.308.067-.522.001-.903.151-1.241.49C2.114 7.95 2 8.28 2 8.999s.114 1.05.489 1.425c.338.338.719.488 1.241.49.219 0 .247.006.308.067.037.037.067.091.067.12 0 .03-.105.174-.234.32-.352.403-.487.728-.487 1.175 0 .433.137.773.459 1.142.547.626.995.878 1.56.878.447 0 .772-.135 1.175-.487.146-.129.29-.234.32-.234.03 0 .084.03.12.067.062.061.068.09.068.308.001.522.151.903.49 1.241.374.375.706.489 1.424.489s1.05-.114 1.425-.489c.338-.338.488-.719.489-1.241 0-.219.007-.247.068-.308.036-.037.09-.067.12-.067s.174.105.32.234c.403.352.728.487 1.174.487.433 0 .773-.137 1.142-.459.626-.548.878-.995.878-1.561 0-.447-.135-.772-.487-1.174-.129-.147-.234-.29-.234-.32 0-.03.03-.084.067-.121.061-.061.09-.067.308-.068.522 0 .903-.15 1.241-.489.375-.375.489-.707.489-1.425 0-.718-.114-1.05-.489-1.424-.338-.339-.719-.489-1.241-.49-.219 0-.247-.006-.308-.067-.037-.037-.067-.092-.067-.123 0-.03.091-.156.202-.281.262-.294.359-.451.444-.719.08-.253.097-.613.04-.862-.09-.383-.367-.775-.843-1.192-.369-.322-.709-.458-1.142-.458-.446 0-.771.135-1.174.487-.146.128-.29.234-.32.234-.03 0-.084-.03-.12-.068-.061-.06-.068-.089-.068-.307-.001-.523-.151-.903-.49-1.242a1.567 1.567 0 0 0-.809-.448c-.249-.053-.998-.052-1.244.001Zm1.192 1.14c.204.143.238.225.258.632.021.41.074.597.237.833.127.186.247.285.49.405.521.26 1.05.163 1.513-.277.25-.238.353-.294.535-.294.19 0 .29.058.57.332.28.275.354.398.354.592 0 .182-.057.285-.294.535-.44.462-.537.992-.277 1.514.12.242.22.362.404.49.236.162.424.215.834.236.406.02.49.054.632.258.074.106.074.11.074.563 0 .44-.002.459-.068.557a.808.808 0 0 1-.173.174c-.096.067-.134.074-.465.09-.41.022-.598.075-.834.237-.185.127-.284.248-.404.49-.26.522-.163 1.051.277 1.514.237.25.294.353.294.534 0 .195-.073.317-.354.593-.28.274-.38.332-.57.332-.182 0-.285-.057-.535-.294-.462-.44-.992-.538-1.514-.278-.242.12-.362.22-.49.405-.162.236-.215.423-.236.834-.02.406-.054.489-.258.632-.106.074-.11.074-.563.074-.452 0-.457 0-.563-.075-.204-.142-.238-.225-.258-.631-.021-.41-.074-.598-.237-.834-.365-.53-1.138-.7-1.698-.371-.067.039-.21.154-.317.256-.238.225-.343.282-.523.282-.19 0-.29-.058-.57-.332-.28-.276-.354-.398-.354-.593 0-.181.057-.285.294-.534.44-.463.537-.992.277-1.514-.12-.242-.22-.363-.404-.49-.236-.162-.424-.215-.834-.236-.406-.02-.49-.055-.632-.259-.074-.106-.074-.11-.074-.562 0-.441.002-.46.068-.557a.808.808 0 0 1 .173-.174c.096-.067.134-.075.465-.091.411-.021.597-.074.835-.238.385-.264.608-.802.525-1.265-.048-.273-.169-.495-.4-.737-.236-.25-.293-.353-.293-.535 0-.194.073-.317.354-.592.28-.274.38-.332.57-.332.182 0 .285.056.535.294.467.444.989.537 1.527.271.468-.23.712-.651.713-1.228 0-.135.013-.29.029-.346.033-.12.22-.314.337-.35.047-.014.271-.023.498-.02.401.005.416.007.52.08ZM8.502 5.87a3.189 3.189 0 0 0-1.8.957 3.145 3.145 0 0 0 .126 4.47 3.154 3.154 0 0 0 2.928.779c.306-.078.427-.157.524-.343.117-.223.049-.49-.168-.666-.096-.077-.122-.085-.3-.084-.109 0-.314.023-.456.05a2.042 2.042 0 0 1-2.213-1.117c-.163-.328-.205-.516-.205-.917 0-.4.042-.589.205-.916a2.03 2.03 0 0 1 .94-.941c.328-.163.517-.205.917-.205s.589.042.916.205a2.04 2.04 0 0 1 1.119 2.215c-.029.157-.05.342-.05.412A.535.535 0 0 0 12 9.984c.136-.272.204-.901.147-1.357A3.18 3.18 0 0 0 8.502 5.87Z"/></symbol><symbol fill="currentColor" viewBox="0 0 18 18" id="stats"><path d="M14.414 3.062c0 .054.159.324.353.598.194.275.334.512.312.526-.023.015-1.261.68-2.751 1.48l-2.71 1.451-1.154-1L7.31 5.114 3.7 7.005C1.713 8.046.052 8.927.01 8.963c-.044.037.07.276.253.533l.334.466 3.257-1.719 3.256-1.72 1.132 1.031 1.133 1.03 3.211-1.73c1.767-.95 3.224-1.716 3.239-1.699.014.017.199.285.41.597.211.312.417.567.457.567.063 0 1.353-2.883 1.307-2.922a48.74 48.74 0 0 0-1.546-.176 50.082 50.082 0 0 1-1.784-.21c-.14-.025-.255-.002-.255.052Zm.484 3.19-.593.312-.002 4.213-.002 4.213h1.246v-4.533c0-2.494-.013-4.53-.029-4.525a24.26 24.26 0 0 0-.62.32Zm-2.324 1.261-.538.306V15l.651-.03.652-.03.02-3.867c.015-2.918-.012-3.868-.113-3.867-.074 0-.376.139-.672.307Zm-6.625.286-.594.296v6.895h1.359v-3.745c0-2.06-.039-3.744-.085-3.744-.047 0-.353.135-.68.298Zm1.67 3.622v3.57h1.246V8.922l-.623-.536-.622-.535v3.569Zm2.802-2.767-.653.348.03 2.97.03 2.969.651.03.651.029v-3.356c0-1.845-.013-3.352-.028-3.347a27.1 27.1 0 0 0-.681.357Zm-6.621.26-.593.31-.01 2.44a358.536 358.536 0 0 1-.02 2.858l-.01.419.641.03.64.029v-3.208c0-1.764-.012-3.204-.027-3.199a24.07 24.07 0 0 0-.621.32Zm-2.265 1.182-.593.312-.002 2.29-.002 2.292h1.246v-2.61c0-1.437-.013-2.608-.028-2.603-.016.004-.295.149-.621.32Z"/></symbol><symbol fill="currentColor" viewBox="0 0 12 12" id="status"><circle cx="6" cy="6" r="2.5"/></symbol><symbol fill="currentColor" viewBox="0 0 12 12" id="status-warning"><path d="M5.762 2.048a.626.626 0 0 0-.167.122c-.037.04-.352.58-.7 1.197a1225.688 1225.688 0 0 1-1.622 2.865l-.95 1.677c-.645 1.136-.742 1.317-.76 1.423-.04.248.077.49.292.6L1.99 10h4.023l4.022-.001.125-.07a.581.581 0 0 0 .26-.666c-.02-.058-.193-.383-.385-.723-.537-.95-.71-1.258-1.35-2.386l-1.4-2.477c-.446-.788-.84-1.466-.878-1.507A.544.544 0 0 0 6 2c-.081 0-.18.02-.238.048Zm.548 2.077c.045.02.112.072.15.117.123.15.125.206.042.996-.1.95-.249 2.298-.267 2.42l-.015.097h-.44l-.016-.11a166.06 166.06 0 0 1-.252-2.292c-.096-.907-.095-.96.024-1.104.101-.124.2-.158.459-.159.141 0 .265.013.315.035ZM6.2 8.128c.1.053.197.18.228.299a.432.432 0 0 1-.123.414c-.186.191-.424.191-.61 0-.205-.21-.17-.52.079-.693a.494.494 0 0 1 .426-.02Z"/></symbol></svg>